<svg width="10" height="13" viewBox="0 0 10 13" fill="none" xmlns="http://www.w3.org/2000/svg">
<g clip-path="url(#clip0_171_306)">
<path d="M5.18053 0.029212C4.96395 0.18707 2.64978 1.96064 2.34363 2.20472C2.107 2.39441 2.09229 2.35727 2.53079 2.70217C3.21261 3.24207 4.76208 4.42666 5.0963 4.66676C5.16315 4.71451 5.22464 4.749 5.2447 4.749C5.26208 4.749 5.29416 4.73309 5.31422 4.71319C5.34363 4.68268 5.34898 4.66809 5.34363 4.62829C5.33694 4.57258 5.14042 4.05258 4.91983 3.50207C4.77144 3.13329 4.76341 3.11074 4.79149 3.10543C4.85432 3.09615 5.73935 3.13196 5.86235 3.15054C6.08828 3.1837 6.41582 3.29247 6.69791 3.42645C7.33427 3.7289 7.90112 4.28737 8.21395 4.92145C8.42117 5.33798 8.52144 5.74258 8.53882 6.22809C8.57224 7.15533 8.26743 7.94196 7.60833 8.6291C7.53748 8.70206 7.46128 8.78298 7.43587 8.80951L7.39176 8.85727L7.69523 9.2141C8.02678 9.60278 8.24202 9.84819 8.28748 9.88798C8.31422 9.91319 8.31555 9.91319 8.36769 9.87737C8.44657 9.82298 8.7701 9.49002 8.93454 9.2937C9.0963 9.10002 9.22331 8.92094 9.34497 8.71002C10.3142 7.03727 10.1765 4.99309 8.99069 3.48217C8.8062 3.24605 8.50807 2.93829 8.28882 2.75788C7.65646 2.23523 6.87304 1.87309 6.08026 1.73911C5.79951 1.69135 5.64309 1.68074 5.19791 1.68074C4.95593 1.68074 4.7594 1.67942 4.7594 1.67544C4.7594 1.67278 4.85833 1.42207 4.97866 1.11697C5.21261 0.524008 5.32892 0.21758 5.34229 0.151253C5.35299 0.0995188 5.3316 0.0597229 5.27678 0.0265589C5.22464 -0.00527763 5.22999 -0.00527763 5.18053 0.029212ZM1.31422 3.43176C0.941222 3.82972 0.720634 4.13615 0.50673 4.56329C0.268762 5.03951 0.121703 5.52635 0.0441633 6.09543C0.0120777 6.34084 0.0120777 6.99217 0.0455002 7.23625C0.149778 8.00298 0.399778 8.66227 0.816891 9.27247C1.45325 10.2037 2.39176 10.8709 3.50406 11.1827C3.86235 11.2835 4.13374 11.3193 4.68587 11.3419C5.05486 11.3564 5.17384 11.3657 5.20058 11.3817C5.21529 11.3909 5.17384 11.5077 5.01475 11.9109C4.67117 12.7825 4.62839 12.9098 4.66582 12.9536C4.70192 12.9974 4.7447 13.0027 4.79817 12.9722C5.05486 12.8209 7.66315 10.8192 7.79951 10.668C7.83427 10.6295 7.81956 10.5844 7.75272 10.5194C7.61636 10.3881 5.69122 8.93288 4.96529 8.41288C4.86101 8.33859 4.76341 8.27757 4.74871 8.27757C4.73534 8.27757 4.70726 8.29084 4.68721 8.30543C4.65379 8.33064 4.65112 8.33992 4.66047 8.389C4.67251 8.46727 4.75272 8.68482 4.99737 9.30563C5.11502 9.6041 5.21529 9.86278 5.2193 9.8787C5.22732 9.90523 5.22331 9.90788 5.13106 9.91584C4.99871 9.92778 4.40112 9.90125 4.22598 9.87472C3.89042 9.82563 3.5816 9.72482 3.24871 9.55768C2.71128 9.28574 2.2447 8.85859 1.93186 8.35053C1.67785 7.93931 1.50673 7.44584 1.47063 7.02268C1.43053 6.53982 1.47732 6.06492 1.60165 5.68421C1.76475 5.19074 1.98534 4.81666 2.34497 4.43196L2.45994 4.3086L2.41181 4.25288C2.29416 4.12156 1.48133 3.27656 1.47197 3.27656C1.46662 3.27656 1.39577 3.34686 1.31422 3.43176Z" fill="black" fill-opacity="0.38"/>
</g>
<defs>
<clipPath id="clip0_171_306">
<rect width="10" height="13" fill="white"/>
</clipPath>
</defs>
</svg>
