<svg width="18" height="18" viewBox="0 0 18 18" fill="none" xmlns="http://www.w3.org/2000/svg">
<g clip-path="url(#clip0_18_273)">
<path d="M13.6405 0.0584908C13.5596 0.0742226 13.3978 0.134895 13.2809 0.193323C13.0742 0.294447 13.0539 0.310177 12.6225 0.748379L12.1775 1.20006L14.4921 3.51467L16.8067 5.82928L17.1843 5.43827C17.7056 4.90119 17.8 4.77085 17.9124 4.40456C17.9888 4.16411 17.9888 3.7686 17.9124 3.52815C17.8472 3.32141 17.7753 3.17535 17.6517 3.00006C17.5326 2.83602 15.1079 0.415794 14.9663 0.321413C14.5708 0.0562439 14.0899 -0.0381374 13.6405 0.0584908ZM10.8539 2.34838C10.5641 2.62478 10.3236 2.86074 10.3214 2.86973C10.3169 2.88096 11.3955 3.9686 12.7169 5.28995L15.1191 7.6922L15.409 7.42478C15.5663 7.27872 15.8157 7.04726 15.9618 6.91243L16.227 6.66523L13.8157 4.254C12.4899 2.92815 11.4 1.84276 11.3933 1.84276C11.3865 1.84276 11.1438 2.06973 10.8539 2.34838ZM9.08989 4.15287C3.30787 9.87872 2.00675 11.1641 1.8809 11.2652C1.82248 11.3147 1.75506 11.3911 1.73034 11.436C1.70787 11.4832 1.62023 11.7484 1.53933 12.0248C1.45619 12.3012 1.15731 13.3169 0.874163 14.281C0.588769 15.245 0.280904 16.2877 0.188769 16.5956C-0.00898341 17.2675 -0.0202194 17.3686 0.089893 17.5911C0.213488 17.8383 0.415736 17.9641 0.685399 17.9641C0.824724 17.9641 1.05619 17.9012 2.78652 17.3888C3.85618 17.072 5.15057 16.69 5.66293 16.5371C6.33484 16.3394 6.62023 16.2473 6.68765 16.2023C6.77304 16.1416 6.85618 16.0383 6.9236 15.9079C6.94158 15.8742 8.16854 14.6473 9.65169 13.1776C11.1348 11.7102 12.8112 10.0473 13.3775 9.48546L14.4045 8.46074L13.8921 7.94838L13.3798 7.43602L9.55506 11.2787L5.73034 15.1192L5.57753 15.1641C5.49439 15.1888 4.79551 15.3933 4.02472 15.618L2.62023 16.0248L2.29888 15.7034C2.12135 15.5282 1.97753 15.3686 1.97753 15.3506C1.97753 15.3349 2.18652 14.6068 2.44045 13.7327L2.90562 12.1461L6.70562 8.35512L10.5056 4.56636L10.0562 4.11467C9.80899 3.86523 9.60225 3.66299 9.59551 3.66299C9.58877 3.66299 9.3618 3.88321 9.08989 4.15287Z" fill="#447EED"/>
<path d="M7.42246 9.18213C5.32359 11.29 3.60449 13.0203 3.59999 13.0293C3.59774 13.0383 3.82471 13.0945 4.10561 13.1529C4.38876 13.2136 4.6337 13.2653 4.65392 13.272C4.68089 13.2788 4.70336 13.3844 4.75954 13.7709C4.79999 14.0383 4.83145 14.2675 4.83145 14.2765C4.83145 14.2877 4.85842 14.2743 4.88988 14.2495C4.92359 14.2226 6.65842 12.4967 8.74831 10.4136L12.5461 6.62483L11.9079 5.98662C11.5573 5.63606 11.2629 5.34842 11.2539 5.34842C11.2472 5.34842 9.52359 7.07202 7.42246 9.18213Z" fill="#447EED"/>
</g>
<defs>
<clipPath id="clip0_18_273">
<rect width="18" height="18" fill="white"/>
</clipPath>
</defs>
</svg>
