<svg width="22" height="22" viewBox="0 0 22 22" fill="none" xmlns="http://www.w3.org/2000/svg">
<path d="M15.4978 1.19041C15.136 1.33708 14.806 1.57174 14.4418 1.94575C13.8209 2.57886 13.3198 3.3733 12.2833 5.36552C11.8091 6.27486 11.4742 6.86641 11.1882 7.29663C11.0049 7.57286 10.7091 7.95908 10.6138 8.04952L10.5405 8.11797L10.3205 7.73175C10.2007 7.51908 9.94401 7.05464 9.75335 6.69775C9.26201 5.78841 9.07868 5.47552 8.76335 4.99886C8.29157 4.28752 7.84179 3.7913 7.30157 3.39041C6.90801 3.09464 6.63424 2.96019 5.97668 2.74019C5.03313 2.42486 4.54179 2.3173 4.03335 2.31241C3.78157 2.30997 3.69846 2.31975 3.55179 2.36619C3.32935 2.43464 3.18757 2.54463 3.10201 2.70841L3.03357 2.83552L3.13868 3.14597C3.49557 4.20441 4.02601 5.27263 4.84246 6.58041C4.97935 6.80041 5.41201 7.46775 5.80557 8.06664C6.90801 9.74841 7.23557 10.2935 7.66579 11.1515C7.92979 11.6771 7.91757 11.5915 7.78068 12.0755C7.58757 12.7575 7.20624 13.5911 6.71001 14.4222C6.57801 14.6446 6.08179 15.4024 5.61001 16.1089C4.68113 17.4997 4.37801 17.9862 4.06757 18.59C3.79624 19.1131 3.70579 19.3306 3.73757 19.3697C3.77912 19.4186 5.45846 20.2595 5.92779 20.4673C6.37757 20.6653 6.86401 20.8389 7.04246 20.8633C7.35779 20.9097 7.80513 20.6751 8.12046 20.3011C8.4969 19.8562 8.79757 19.294 9.38668 17.93C9.70446 17.1966 10.0711 16.4682 10.2887 16.1406C10.4793 15.8546 10.7653 15.5295 10.912 15.4342L10.9829 15.3902L11.1662 15.5833C11.6209 16.0649 11.99 16.5489 12.8211 17.7466C13.4518 18.6584 13.7647 19.0764 14.1265 19.4846C14.5762 19.998 14.6129 20.0273 14.9136 20.1153C15.2705 20.2204 15.8205 20.35 16.17 20.4135C16.5342 20.4771 17.2896 20.504 17.5365 20.4624C18.0107 20.3793 18.2918 20.1593 18.3602 19.822C18.3847 19.6949 18.3822 19.6826 18.2845 19.4577C18.1207 19.0862 17.7418 18.3504 17.4949 17.9275C17.072 17.2064 16.9865 17.0769 15.3707 14.6789C14.5885 13.5202 14.1533 12.7991 13.7818 12.056L13.6082 11.7089L13.6889 11.5182C13.8331 11.1857 14.2853 10.2666 14.4956 9.87552C15.5002 8.00552 16.8422 5.98641 18.5142 3.83775C18.8833 3.36352 18.9518 3.23886 18.9518 3.01641C18.9518 2.81597 18.8687 2.64486 18.6878 2.45908C18.2893 2.05575 17.5365 1.70619 16.1162 1.26863C15.8938 1.20019 15.7007 1.14152 15.6836 1.13663C15.6689 1.1293 15.5858 1.15375 15.4978 1.19041Z" fill="#FF0000"/>
</svg>
