<svg width="10" height="12" viewBox="0 0 10 12" fill="none" xmlns="http://www.w3.org/2000/svg">
<path d="M7.45345 0.649328C7.25612 0.729328 7.07612 0.857327 6.87745 1.06133C6.53879 1.40666 6.26545 1.83999 5.70012 2.92666C5.44145 3.42266 5.25879 3.74533 5.10279 3.97999C5.00279 4.13066 4.84145 4.34133 4.78945 4.39066L4.74945 4.42799L4.62945 4.21733C4.56412 4.10133 4.42412 3.84799 4.32012 3.65333C4.05212 3.15733 3.95212 2.98666 3.78012 2.72666C3.52279 2.33866 3.27745 2.06799 2.98279 1.84933C2.76812 1.68799 2.61879 1.61466 2.26012 1.49466C1.74545 1.32266 1.47745 1.26399 1.20012 1.26133C1.06279 1.25999 1.01745 1.26533 0.937452 1.29066C0.816119 1.32799 0.738785 1.38799 0.692118 1.47733L0.654785 1.54666L0.712118 1.71599C0.906785 2.29333 1.19612 2.87599 1.64145 3.58933C1.71612 3.70933 1.95212 4.07333 2.16679 4.39999C2.76812 5.31733 2.94679 5.61466 3.18145 6.08266C3.32545 6.36933 3.31879 6.32266 3.24412 6.58666C3.13879 6.95866 2.93079 7.41333 2.66012 7.86666C2.58812 7.98799 2.31745 8.40133 2.06012 8.78666C1.55345 9.54533 1.38812 9.81066 1.21879 10.14C1.07079 10.4253 1.02145 10.544 1.03879 10.5653C1.06145 10.592 1.97745 11.0507 2.23345 11.164C2.47879 11.272 2.74412 11.3667 2.84145 11.38C3.01345 11.4053 3.25745 11.2773 3.42945 11.0733C3.63479 10.8307 3.79879 10.524 4.12012 9.77999C4.29345 9.37999 4.49345 8.98266 4.61212 8.80399C4.71612 8.64799 4.87212 8.47066 4.95212 8.41866L4.99079 8.39466L5.09079 8.49999C5.33879 8.76266 5.54012 9.02666 5.99345 9.67999C6.33745 10.1773 6.50812 10.4053 6.70545 10.628C6.95079 10.908 6.97079 10.924 7.13479 10.972C7.32945 11.0293 7.62945 11.1 7.82012 11.1347C8.01879 11.1693 8.43079 11.184 8.56545 11.1613C8.82412 11.116 8.97745 10.996 9.01479 10.812C9.02812 10.7427 9.02679 10.736 8.97345 10.6133C8.88412 10.4107 8.67745 10.0093 8.54279 9.77866C8.31212 9.38533 8.26545 9.31466 7.38412 8.00666C6.95745 7.37466 6.72012 6.98133 6.51745 6.57599L6.42279 6.38666L6.46679 6.28266C6.54545 6.10133 6.79212 5.59999 6.90679 5.38666C7.45479 4.36666 8.18679 3.26533 9.09879 2.09333C9.30012 1.83466 9.33745 1.76666 9.33745 1.64533C9.33745 1.53599 9.29212 1.44266 9.19345 1.34133C8.97612 1.12133 8.56545 0.930661 7.79079 0.691995C7.66945 0.654661 7.56412 0.622662 7.55479 0.619994C7.54679 0.615994 7.50145 0.629328 7.45345 0.649328Z" fill="#FF0000"/>
</svg>
