<svg width="18" height="18" viewBox="0 0 18 18" fill="none" xmlns="http://www.w3.org/2000/svg">
<g clip-path="url(#clip0_36_402)">
<path d="M13.6403 0.0583687C13.5594 0.0741005 13.3976 0.134773 13.2808 0.193201C13.074 0.294325 13.0538 0.310055 12.6224 0.748257L12.1774 1.19994L14.492 3.51455L16.8066 5.82916L17.1842 5.43814C17.7055 4.90107 17.7999 4.77073 17.9122 4.40444C17.9886 4.16399 17.9886 3.76848 17.9122 3.52803C17.8471 3.32129 17.7752 3.17522 17.6516 2.99994C17.5325 2.8359 15.1077 0.415672 14.9662 0.321291C14.5707 0.0561218 14.0898 -0.0382595 13.6403 0.0583687ZM10.8538 2.34826C10.5639 2.62466 10.3235 2.86062 10.3212 2.86961C10.3167 2.88084 11.3954 3.96848 12.7167 5.28983L15.119 7.69208L15.4089 7.42466C15.5662 7.27859 15.8156 7.04713 15.9617 6.9123L16.2269 6.66511L13.8156 4.25388C12.4898 2.92803 11.3999 1.84264 11.3931 1.84264C11.3864 1.84264 11.1437 2.06961 10.8538 2.34826ZM9.08977 4.15275C3.30775 9.8786 2.00662 11.164 1.88078 11.2651C1.82236 11.3146 1.75494 11.391 1.73022 11.4359C1.70775 11.4831 1.62011 11.7483 1.53921 12.0247C1.45606 12.3011 1.15719 13.3168 0.874041 14.2808C0.588647 15.2449 0.280782 16.2876 0.188647 16.5954C-0.00910548 17.2674 -0.0203414 17.3685 0.0897709 17.591C0.213366 17.8381 0.415614 17.964 0.685277 17.964C0.824602 17.964 1.05606 17.9011 2.7864 17.3887C3.85606 17.0719 5.15044 16.6898 5.6628 16.537C6.33471 16.3393 6.62011 16.2471 6.68752 16.2022C6.77292 16.1415 6.85606 16.0381 6.92348 15.9078C6.94146 15.8741 8.16842 14.6471 9.65157 13.1775C11.1347 11.7101 12.8111 10.0471 13.3774 9.48534L14.4044 8.46062L13.892 7.94826L13.3797 7.4359L9.55494 11.2786L5.73022 15.119L5.57741 15.164C5.49427 15.1887 4.79539 15.3932 4.0246 15.6179L2.62011 16.0247L2.29876 15.7033C2.12123 15.528 1.97741 15.3685 1.97741 15.3505C1.97741 15.3348 2.1864 14.6067 2.44033 13.7325L2.9055 12.146L6.7055 8.355L10.5055 4.56623L10.0561 4.11455C9.80887 3.86511 9.60213 3.66286 9.59539 3.66286C9.58865 3.66286 9.36168 3.88309 9.08977 4.15275Z" fill="#447EED"/>
<path d="M7.42259 9.18201C5.32371 11.2899 3.60461 13.0202 3.60011 13.0292C3.59787 13.0382 3.82483 13.0944 4.10573 13.1528C4.38888 13.2135 4.63382 13.2652 4.65405 13.2719C4.68101 13.2786 4.70349 13.3843 4.75966 13.7708C4.80011 14.0382 4.83157 14.2674 4.83157 14.2764C4.83157 14.2876 4.85854 14.2741 4.89 14.2494C4.92371 14.2225 6.65854 12.4966 8.74843 10.4135L12.5462 6.6247L11.908 5.9865C11.5574 5.63594 11.263 5.3483 11.254 5.3483C11.2473 5.3483 9.52371 7.0719 7.42259 9.18201Z" fill="#447EED"/>
</g>
<defs>
<clipPath id="clip0_36_402">
<rect width="18" height="18" fill="white"/>
</clipPath>
</defs>
</svg>
