<svg width="33" height="33" viewBox="0 0 33 33" fill="none" xmlns="http://www.w3.org/2000/svg">
<circle cx="16.5" cy="16.5" r="16.5" fill="#FDFF88"/>
<g clip-path="url(#clip0_47_90)">
<path d="M16.2155 6.59977C15.5765 6.72244 15.0859 7.18077 14.9121 7.81799C14.8814 7.93044 14.8746 8.01393 14.8661 8.4467L14.8558 8.94761L14.6599 9.00384C13.8199 9.24578 13.1111 9.62062 12.4876 10.1556C11.5079 10.9939 10.8332 12.2172 10.6066 13.57C10.5111 14.1306 10.5145 14.0352 10.5026 16.8328C10.4907 19.4005 10.4907 19.4328 10.4549 19.6236C10.3288 20.283 10.1107 20.8981 9.75294 21.6035C9.5519 21.9988 9.41389 22.222 8.90445 22.987C8.63354 23.3942 8.39331 23.7622 8.37116 23.8031C8.33879 23.8627 8.33027 23.9053 8.33027 24.0144C8.33027 24.1694 8.35071 24.2324 8.44101 24.3551C8.48531 24.4147 8.53813 24.4607 8.6131 24.4999L8.72214 24.5596H16.5H24.2779L24.3869 24.4999C24.6374 24.3653 24.7498 24.0399 24.6272 23.8014C24.6067 23.7605 24.3699 23.3976 24.1007 22.9938C23.5163 22.118 23.305 21.7585 23.0511 21.2116C22.753 20.571 22.5843 20.0206 22.523 19.4976C22.5008 19.3119 22.4974 18.9166 22.4974 16.935C22.4974 14.5361 22.4923 14.3367 22.4275 13.8597C22.2504 12.5597 21.7154 11.4045 20.8839 10.5287C20.2109 9.81996 19.33 9.29008 18.3657 9.01406L18.1442 8.95102L18.134 8.4484C18.1237 7.90659 18.1118 7.82821 18.0096 7.58457C17.8136 7.11943 17.3894 6.75311 16.9004 6.62533C16.7249 6.57932 16.3876 6.5674 16.2155 6.59977ZM16.7334 7.72258C16.8459 7.78051 16.9294 7.86399 16.9907 7.97815C17.0367 8.06504 17.0367 8.07356 17.0418 8.41603L17.0469 8.76531H16.5H15.9531L15.9582 8.41603C15.9633 8.07356 15.9633 8.06504 16.0093 7.97815C16.086 7.83503 16.207 7.7328 16.3637 7.68169C16.4489 7.65272 16.6397 7.67487 16.7334 7.72258ZM4.61597 8.72782C2.29028 12.7147 2.29028 17.8824 4.61597 21.871C4.75909 22.1197 4.76932 22.1299 4.80169 22.1078C4.82213 22.0959 5.02659 21.9681 5.26001 21.8267C5.49173 21.6835 5.68085 21.5592 5.68085 21.5524C5.68085 21.5438 5.611 21.4161 5.52581 21.2678C4.79487 19.9917 4.3161 18.6031 4.09802 17.131C3.69251 14.3947 4.19513 11.655 5.52581 9.33097C5.611 9.18274 5.68085 9.05495 5.68085 9.04643C5.68085 9.03962 5.49173 8.91524 5.26001 8.77212C5.02659 8.63071 4.82213 8.50292 4.80169 8.49099C4.76932 8.46884 4.75909 8.47907 4.61597 8.72782ZM27.7792 8.74997C27.5321 8.90331 27.326 9.03451 27.3226 9.04303C27.3209 9.05155 27.3873 9.18103 27.4725 9.32927C28.8543 11.7316 29.3416 14.6059 28.8509 17.4462C28.6226 18.7735 28.1421 20.1058 27.4742 21.2678C27.389 21.4161 27.3192 21.5438 27.3192 21.5524C27.3192 21.5592 27.4248 21.6307 27.5543 21.7108C27.6821 21.7892 27.8882 21.9153 28.0109 21.9919L28.2341 22.1282L28.3857 21.871C30.6961 17.9079 30.7114 12.7863 28.4266 8.80109C28.3415 8.65115 28.2614 8.51655 28.2512 8.50122C28.2324 8.47566 28.1779 8.50462 27.7792 8.74997Z" fill="#D53D3D"/>
<path d="M7.09851 9.97856C6.96903 10.1626 6.62145 10.8271 6.43573 11.2445C5.62302 13.0744 5.3896 15.2143 5.78488 17.2163C5.9706 18.1517 6.35054 19.2353 6.7765 20.0361C6.9128 20.2951 7.11214 20.6478 7.12578 20.6563C7.13941 20.6648 8.03901 20.1281 8.04583 20.106C8.04924 20.0975 7.99983 19.9986 7.93679 19.8879C7.77152 19.5999 7.47335 18.9815 7.35068 18.6748C7.02014 17.8518 6.80887 16.9744 6.71686 16.0577C6.6879 15.7647 6.6879 14.8174 6.71686 14.5073C6.85317 13.0522 7.24504 11.8647 8.02538 10.551C8.04242 10.5221 8.05264 10.4948 8.04924 10.4897C8.02709 10.4727 7.14622 9.93256 7.13941 9.93256C7.13429 9.93256 7.11726 9.953 7.09851 9.97856ZM25.4161 10.2035C25.1793 10.35 24.9765 10.4795 24.9663 10.4897C24.9544 10.5016 24.9868 10.5732 25.0873 10.7436C25.7603 11.8953 26.1556 13.1374 26.2834 14.5073C26.3123 14.8191 26.3123 15.7664 26.2834 16.0577C26.1913 16.9744 25.992 17.8041 25.6564 18.6526C25.532 18.9712 25.2389 19.5812 25.0634 19.8879C25.0004 19.9986 24.951 20.0975 24.9544 20.106C24.9612 20.1281 25.8608 20.6648 25.8744 20.6563C25.8983 20.641 26.1249 20.2269 26.2868 19.9066C27.2068 18.0716 27.5646 16.1003 27.3363 14.1069C27.1813 12.7558 26.7689 11.4966 26.0806 10.2818C25.9256 10.0092 25.8761 9.93256 25.8574 9.93426C25.8506 9.93426 25.6512 10.0552 25.4161 10.2035ZM14.0126 25.6672C14.0126 25.6962 14.1608 25.9654 14.2528 26.1034C14.4027 26.3283 14.7486 26.6707 14.9837 26.8275C15.2989 27.037 15.6158 27.1682 15.989 27.2449C16.2667 27.3028 16.7267 27.3028 17.0061 27.2466C17.3725 27.1734 17.7013 27.037 18.0165 26.8275C18.2516 26.6707 18.5975 26.3283 18.7474 26.1034C18.8394 25.9654 18.9877 25.6962 18.9877 25.6672C18.9877 25.6621 17.8683 25.6587 16.5001 25.6587C15.132 25.6587 14.0126 25.6621 14.0126 25.6672Z" fill="#D53D3D"/>
</g>
<defs>
<clipPath id="clip0_47_90">
<rect width="27.2609" height="27.2609" fill="white" transform="translate(2.86963 3.30469)"/>
</clipPath>
</defs>
</svg>
