<svg width="18" height="18" viewBox="0 0 18 18" fill="none" xmlns="http://www.w3.org/2000/svg">
<g clip-path="url(#clip0_25_411)">
<path d="M2.12146 0.0383873C1.95983 0.0457191 1.7486 0.0677166 1.65309 0.0878792C1.10758 0.199692 0.519828 0.668938 0.235135 1.22067C0.0973795 1.48645 0.0569714 1.63493 0.0312571 1.9612C0.0165632 2.17016 0.00921631 4.01232 0.00921631 8.88992C0.00921631 15.7673 0.011053 16.0038 0.0826857 16.4107C0.112073 16.5775 0.235135 16.8396 0.382073 17.0467C0.490441 17.2007 0.784318 17.4922 0.936767 17.6003C1.09656 17.7121 1.40146 17.8643 1.53554 17.8991C1.81473 17.9687 1.82391 17.9687 6.61044 17.9761L11.2666 17.9834L11.4135 17.9247C11.801 17.7726 12.0619 17.6131 12.3043 17.3858C12.6588 17.0522 12.8755 16.6508 12.9582 16.1724C12.9747 16.0826 12.9857 15.903 12.9857 15.7526V15.4887H9.84125C8.11105 15.4869 6.56819 15.4795 6.41574 15.4704C6.17513 15.4575 6.12003 15.4484 6.03187 15.408C5.89411 15.3457 5.66636 15.1166 5.59289 14.9663L5.53779 14.8563L5.53227 11.7311L5.52676 8.60763L5.61309 8.48299C5.71411 8.33452 5.83901 8.21904 6.02452 8.09806L6.16227 8.01008H7.57656C8.35533 8.01008 9.89084 8.00458 10.9892 7.99725L12.9894 7.98625L12.9802 7.19623C12.9747 6.71049 12.9637 6.37138 12.9508 6.31456C12.881 6.01028 12.668 5.77199 12.2951 5.58503L12.1629 5.51904L10.249 5.49888C9.19472 5.48788 8.23044 5.47138 8.10554 5.46222C7.6188 5.42556 7.5784 5.38523 7.54901 4.92698C7.53982 4.77301 7.52329 3.87851 7.51227 2.94185C7.50125 2.00336 7.48472 1.13818 7.47554 1.01721C7.45901 0.813744 7.45166 0.786249 7.38187 0.641443C7.27166 0.417818 7.09166 0.243683 6.83819 0.113541L6.65268 0.0182247L4.53309 0.0218906C3.3686 0.0218906 2.28309 0.0310555 2.12146 0.0383873Z" fill="white"/>
<path d="M8.49125 1.9339C8.49677 3.184 8.50779 3.9062 8.52064 3.99235C8.56289 4.28563 8.59044 4.32412 8.83472 4.44326L8.99085 4.52025L10.9892 4.51108L12.9857 4.50009L10.7339 2.25467L8.48391 0.00925159L8.49125 1.9339ZM7.05309 9.03675C6.80513 9.05141 6.72432 9.07707 6.62513 9.17422C6.50207 9.29886 6.49656 9.44917 6.50575 12.0245L6.51493 14.2131L6.62146 14.3103C6.68024 14.3634 6.76473 14.4257 6.81248 14.4477C6.89697 14.4899 6.90248 14.4899 8.09085 14.5064C9.5584 14.5266 17.4306 14.4899 17.6217 14.4624C17.8274 14.4331 17.9266 14.3323 17.9651 14.1123C17.9798 14.0317 17.989 13.271 17.9945 11.6598L18.0019 9.32453L17.8494 9.17055L17.697 9.01842L12.4898 9.02208C9.62636 9.02208 7.17983 9.02941 7.05309 9.03675ZM8.62901 10.0376C8.66574 10.0522 8.72085 10.0871 8.75023 10.1145C8.79983 10.1604 9.06248 10.5508 9.3637 11.0237C9.43901 11.141 9.50697 11.2327 9.51615 11.2272C9.52534 11.2198 9.6833 10.9926 9.86697 10.7176C10.0653 10.4207 10.2435 10.1769 10.3059 10.1127C10.4051 10.0137 10.4162 10.0082 10.5006 10.0082C10.6035 10.0082 10.699 10.0522 10.7504 10.1219C10.778 10.1585 10.7872 10.1989 10.7872 10.2813C10.7853 10.4372 10.7137 10.571 10.2986 11.196C10.1094 11.482 9.95146 11.7221 9.94962 11.7294C9.94778 11.7386 10.0286 11.8706 10.1296 12.0264C10.5153 12.6221 10.6439 12.8292 10.7486 13.0143C10.8368 13.1738 10.8551 13.2215 10.8551 13.2948C10.8551 13.4341 10.7853 13.5331 10.6494 13.5917C10.4382 13.6797 10.3592 13.6027 9.83758 12.8017C9.67962 12.5579 9.54003 12.3508 9.52717 12.3398C9.48125 12.3013 9.41513 12.3838 9.0184 12.9685C8.6235 13.5532 8.57574 13.6009 8.39023 13.6009C8.21207 13.6009 8.11289 13.4928 8.11656 13.2966C8.1184 13.1335 8.14044 13.0932 8.67309 12.294C8.8733 11.9934 9.03676 11.7422 9.03676 11.7331C9.03676 11.7129 8.88615 11.4673 8.6235 11.0604C8.25248 10.4885 8.1937 10.3602 8.23044 10.2209C8.27636 10.0449 8.45268 9.96424 8.62901 10.0376ZM11.8929 10.0449C11.9333 10.0651 11.9994 10.1145 12.0398 10.1549L12.1115 10.2282L12.1243 11.5901C12.1317 12.338 12.1372 12.9502 12.139 12.952C12.1408 12.952 12.4659 12.9594 12.8627 12.9649C13.2741 12.9704 13.6231 12.985 13.6764 12.996C13.7388 13.0088 13.7884 13.0345 13.8233 13.0712C13.8674 13.117 13.8766 13.1427 13.8821 13.2508C13.8913 13.3993 13.871 13.4469 13.781 13.4854C13.68 13.5257 13.2649 13.5441 12.3962 13.5459H11.6155L11.5586 13.4854C11.4484 13.3718 11.4208 13.2893 11.4043 13.0363C11.3859 12.7394 11.3859 11.8632 11.4043 10.9687C11.4208 10.1677 11.4208 10.1732 11.5788 10.0669C11.6835 9.99724 11.779 9.9899 11.8929 10.0449ZM15.897 10.0632C16.121 10.12 16.29 10.2117 16.4351 10.3528C16.65 10.5655 16.7419 10.8166 16.6629 10.9742C16.6151 11.0659 16.5141 11.1557 16.4388 11.1722C16.29 11.2052 16.2147 11.1465 16.0145 10.8532C15.851 10.6095 15.7353 10.5343 15.4947 10.5105C15.2688 10.4885 14.9915 10.582 14.8776 10.7194C14.76 10.8624 14.7655 11.0402 14.8923 11.1465C14.9915 11.229 15.1715 11.2987 15.5664 11.4105C15.9778 11.526 16.1155 11.5773 16.3323 11.6891C16.5178 11.7844 16.661 11.9145 16.7419 12.0612L16.797 12.162V12.5011V12.8402L16.7382 12.9612C16.6133 13.2123 16.3598 13.4194 16.0347 13.5312C15.8786 13.5844 15.4892 13.6101 15.2119 13.5844C14.8206 13.5496 14.5782 13.4378 14.3413 13.1811C14.187 13.0143 14.108 12.8585 14.0823 12.6697C14.0657 12.5414 14.0676 12.5176 14.0988 12.4553C14.1851 12.2793 14.4019 12.239 14.5635 12.3691C14.6076 12.404 14.659 12.4809 14.7178 12.5983C14.7894 12.7394 14.8317 12.7962 14.9382 12.8989C15.0906 13.0437 15.1476 13.0657 15.3827 13.0822C15.7206 13.1042 16.0072 12.9685 16.1045 12.7412C16.1413 12.6514 16.1394 12.4699 16.099 12.3838C16.0347 12.2482 15.8639 12.1693 15.2725 11.9989C14.738 11.8449 14.5598 11.7624 14.3835 11.5828C13.9849 11.1795 14.0731 10.5508 14.5708 10.2264C14.7196 10.1292 14.94 10.0614 15.2357 10.0192C15.3643 10.0009 15.7537 10.0266 15.897 10.0632Z" fill="white"/>
</g>
<defs>
<clipPath id="clip0_25_411">
<rect width="18" height="18" fill="white"/>
</clipPath>
</defs>
</svg>
