<svg width="25" height="25" viewBox="0 0 25 25" fill="none" xmlns="http://www.w3.org/2000/svg">
<g clip-path="url(#clip0_39_701)">
<path d="M2.94649 0.0534248C2.722 0.0636082 2.42863 0.0941582 2.29598 0.122162C1.53833 0.277456 0.722001 0.929188 0.326593 1.69548C0.135266 2.06463 0.0791439 2.27084 0.0434296 2.724C0.0230215 3.01422 0.0128174 5.57277 0.0128174 12.3472C0.0128174 21.8991 0.0153684 22.2276 0.114858 22.7927C0.155674 23.0244 0.326593 23.3885 0.530674 23.6761C0.681184 23.89 1.08935 24.2948 1.30108 24.445C1.52302 24.6003 1.94649 24.8116 2.13271 24.8599C2.52047 24.9567 2.53322 24.9567 9.18118 24.9669L15.648 24.9771L15.8521 24.8956C16.3904 24.6843 16.7526 24.4628 17.0893 24.1471C17.5817 23.6838 17.8827 23.1262 17.9975 22.4618C18.0205 22.337 18.0358 22.0875 18.0358 21.8788V21.5122H13.6684C11.2654 21.5096 9.12251 21.4995 8.91077 21.4867C8.57659 21.4689 8.50006 21.4562 8.37761 21.4002C8.18628 21.3136 7.86996 20.9954 7.76792 20.7866L7.69138 20.6339L7.68373 16.2932L7.67608 11.9552L7.79598 11.782C7.93628 11.5758 8.10975 11.4154 8.3674 11.2474L8.55873 11.1252H10.523C11.6046 11.1252 13.7373 11.1176 15.2628 11.1074L18.0409 11.0921L18.0281 9.99487C18.0205 9.32023 18.0052 8.84925 17.9873 8.77033C17.8904 8.34772 17.5944 8.01677 17.0766 7.75709L16.8929 7.66544L14.2347 7.63744C12.7705 7.62216 11.4312 7.59925 11.2577 7.58652C10.5817 7.5356 10.5256 7.4796 10.4847 6.84314C10.472 6.62929 10.449 5.38693 10.4337 4.08601C10.4184 2.78255 10.3955 1.58092 10.3827 1.4129C10.3598 1.13031 10.3495 1.09212 10.2526 0.891001C10.0995 0.58041 9.84955 0.338556 9.49751 0.157803L9.23985 0.0254211L6.29598 0.0305119C4.67863 0.0305119 3.17098 0.0432415 2.94649 0.0534248Z" fill="#338545"/>
<path d="M11.7933 2.68588C11.801 4.42214 11.8163 5.42519 11.8342 5.54484C11.8928 5.95218 11.9311 6.00564 12.2704 6.17112L12.4872 6.27804L15.2627 6.26531L18.0357 6.25004L14.9081 3.1314L11.7831 0.0127678L11.7933 2.68588ZM9.7959 12.551C9.45151 12.5713 9.33927 12.607 9.20151 12.7419C9.03059 12.915 9.02294 13.1238 9.0357 16.7006L9.04845 19.7404L9.19641 19.8753C9.27804 19.9491 9.39539 20.0357 9.46172 20.0662C9.57906 20.1248 9.58672 20.1248 11.2372 20.1477C13.2755 20.1757 24.2092 20.1248 24.4745 20.0866C24.7602 20.0459 24.8979 19.9058 24.9515 19.6003C24.9719 19.4883 24.9847 18.4318 24.9923 16.194L25.0025 12.9506L24.7908 12.7368L24.5791 12.5255L17.3469 12.5306C13.3699 12.5306 9.97192 12.5408 9.7959 12.551ZM11.9847 13.941C12.0357 13.9613 12.1122 14.0097 12.153 14.0479C12.2219 14.1115 12.5867 14.6538 13.0051 15.3106C13.1097 15.4736 13.2041 15.6009 13.2168 15.5932C13.2296 15.583 13.449 15.2674 13.7041 14.8855C13.9796 14.4731 14.227 14.1345 14.3138 14.0454C14.4515 13.9079 14.4668 13.9002 14.5842 13.9002C14.727 13.9002 14.8597 13.9613 14.9311 14.0581C14.9694 14.109 14.9821 14.165 14.9821 14.2796C14.9796 14.496 14.8801 14.6818 14.3036 15.5499C14.0408 15.9471 13.8214 16.2806 13.8189 16.2908C13.8163 16.3035 13.9286 16.4868 14.0689 16.7032C14.6046 17.5306 14.7831 17.8183 14.9286 18.0754C15.051 18.2969 15.0765 18.3631 15.0765 18.4649C15.0765 18.6584 14.9796 18.7959 14.7908 18.8773C14.4974 18.9995 14.3877 18.8926 13.6632 17.7801C13.4439 17.4415 13.25 17.1538 13.2321 17.1385C13.1683 17.0851 13.0765 17.1996 12.5255 18.0117C11.977 18.8239 11.9107 18.8901 11.653 18.8901C11.4056 18.8901 11.2678 18.7399 11.2729 18.4675C11.2755 18.2409 11.3061 18.1849 12.0459 17.0749C12.324 16.6574 12.551 16.3086 12.551 16.2959C12.551 16.2679 12.3418 15.9267 11.977 15.3615C11.4617 14.5672 11.3801 14.389 11.4311 14.1956C11.4949 13.9512 11.7398 13.8391 11.9847 13.941ZM16.5178 13.9512C16.574 13.9792 16.6658 14.0479 16.7219 14.1039L16.8214 14.2057L16.8393 16.0973C16.8495 17.136 16.8571 17.9863 16.8597 17.9888C16.8622 17.9888 17.3138 17.999 17.8648 18.0067C18.4362 18.0143 18.9209 18.0347 18.9949 18.0499C19.0816 18.0678 19.1505 18.1034 19.199 18.1543C19.2602 18.218 19.2729 18.2536 19.2806 18.4038C19.2933 18.61 19.2653 18.6762 19.1403 18.7297C19 18.7857 18.4234 18.8111 17.2168 18.8137H16.1326L16.0536 18.7297C15.9005 18.5718 15.8622 18.4573 15.8393 18.1059C15.8138 17.6935 15.8138 16.4766 15.8393 15.2343C15.8622 14.1217 15.8622 14.1294 16.0816 13.9817C16.227 13.885 16.3597 13.8748 16.5178 13.9512ZM22.0791 13.9766C22.3903 14.0555 22.625 14.1828 22.8265 14.3789C23.125 14.6742 23.2525 15.023 23.1428 15.2419C23.0765 15.3692 22.9362 15.4939 22.8316 15.5168C22.625 15.5627 22.5204 15.4812 22.2423 15.0739C22.0153 14.7353 21.8546 14.6309 21.5204 14.5978C21.2066 14.5672 20.8214 14.6971 20.6632 14.888C20.5 15.0866 20.5076 15.3335 20.6837 15.4812C20.8214 15.5958 21.0714 15.6925 21.6199 15.8478C22.1913 16.0082 22.3826 16.0795 22.6836 16.2348C22.9413 16.3671 23.1403 16.5479 23.2525 16.7516L23.3291 16.8916V17.3626V17.8335L23.2474 18.0016C23.074 18.3503 22.7219 18.638 22.2704 18.7933C22.0535 18.8671 21.5127 18.9028 21.1275 18.8671C20.5842 18.8188 20.2474 18.6635 19.9183 18.3071C19.7041 18.0754 19.5944 17.859 19.5587 17.5968C19.5357 17.4186 19.5382 17.3855 19.5816 17.2989C19.7015 17.0545 20.0025 16.9985 20.227 17.1793C20.2882 17.2276 20.3597 17.3346 20.4413 17.4975C20.5408 17.6935 20.5995 17.7724 20.7474 17.915C20.9592 18.1161 21.0382 18.1467 21.3648 18.1696C21.8342 18.2001 22.2321 18.0117 22.3673 17.6961C22.4183 17.5713 22.4158 17.3193 22.3597 17.1996C22.2704 17.0112 22.0331 16.9018 21.2117 16.665C20.4694 16.4512 20.2219 16.3366 19.977 16.0871C19.4234 15.527 19.5459 14.6538 20.2372 14.2032C20.4439 14.0683 20.75 13.9741 21.1607 13.9155C21.3393 13.8901 21.8801 13.9257 22.0791 13.9766Z" fill="#338545"/>
</g>
<defs>
<clipPath id="clip0_39_701">
<rect width="25" height="25" fill="white"/>
</clipPath>
</defs>
</svg>
